<svg id="visual" viewBox="0 0 900 600" width="900" height="600" xmlns="http://www.w3.org/2000/svg" xmlns:xlink="http://www.w3.org/1999/xlink" version="1.1"><rect x="0" y="0" width="900" height="600" fill="#fdfdfd"></rect><path d="M515 600L515.2 588.8C515.3 577.7 515.7 555.3 500.5 533.2C485.3 511 454.7 489 462.8 466.8C471 444.7 518 422.3 531.3 400C544.7 377.7 524.3 355.3 505.7 333.2C487 311 470 289 481 266.8C492 244.7 531 222.3 533.7 200C536.3 177.7 502.7 155.3 485.7 133.2C468.7 111 468.3 89 483.7 66.8C499 44.7 530 22.3 545.5 11.2L561 0L900 0L900 11.2C900 22.3 900 44.7 900 66.8C900 89 900 111 900 133.2C900 155.3 900 177.7 900 200C900 222.3 900 244.7 900 266.8C900 289 900 311 900 333.2C900 355.3 900 377.7 900 400C900 422.3 900 444.7 900 466.8C900 489 900 511 900 533.2C900 555.3 900 577.7 900 588.8L900 600Z" fill="#1e3349"></path><path d="M541 600L550.5 588.8C560 577.7 579 555.3 598.8 533.2C618.7 511 639.3 489 635.2 466.8C631 444.7 602 422.3 598.7 400C595.3 377.7 617.7 355.3 633.7 333.2C649.7 311 659.3 289 644.5 266.8C629.7 244.7 590.3 222.3 573.5 200C556.7 177.7 562.3 155.3 587.8 133.2C613.3 111 658.7 89 670.8 66.8C683 44.7 662 22.3 651.5 11.2L641 0L900 0L900 11.2C900 22.3 900 44.7 900 66.8C900 89 900 111 900 133.2C900 155.3 900 177.7 900 200C900 222.3 900 244.7 900 266.8C900 289 900 311 900 333.2C900 355.3 900 377.7 900 400C900 422.3 900 444.7 900 466.8C900 489 900 511 900 533.2C900 555.3 900 577.7 900 588.8L900 600Z" fill="#0f2235"></path><path d="M827 600L829 588.8C831 577.7 835 555.3 822.8 533.2C810.7 511 782.3 489 769.5 466.8C756.7 444.7 759.3 422.3 753.7 400C748 377.7 734 355.3 743.2 333.2C752.3 311 784.7 289 778.2 266.8C771.7 244.7 726.3 222.3 725.3 200C724.3 177.7 767.7 155.3 789.3 133.2C811 111 811 89 819.2 66.8C827.3 44.7 843.7 22.3 851.8 11.2L860 0L900 0L900 11.2C900 22.3 900 44.7 900 66.8C900 89 900 111 900 133.2C900 155.3 900 177.7 900 200C900 222.3 900 244.7 900 266.8C900 289 900 311 900 333.2C900 355.3 900 377.7 900 400C900 422.3 900 444.7 900 466.8C900 489 900 511 900 533.2C900 555.3 900 577.7 900 588.8L900 600Z" fill="#001122"></path></svg>