<?xml version="1.0" standalone="no"?>
<!DOCTYPE svg PUBLIC "-//W3C//DTD SVG 20010904//EN"
 "http://www.w3.org/TR/2001/REC-SVG-20010904/DTD/svg10.dtd">
<svg version="1.0" xmlns="http://www.w3.org/2000/svg"
 width="752.000000pt" height="752.000000pt" viewBox="0 0 752.000000 752.000000"
 preserveAspectRatio="xMidYMid meet">
<metadata>
Created by potrace 1.14, written by Peter Selinger 2001-2017
</metadata>
<g transform="translate(0.000000,752.000000) scale(0.100000,-0.100000)"
fill="#000000" stroke="none">
<path d="M3608 6125 c-2 -1 -37 -6 -78 -9 -41 -4 -100 -11 -130 -16 -30 -5
-71 -12 -90 -15 -96 -16 -309 -78 -425 -125 -575 -228 -1039 -677 -1293 -1250
-58 -130 -116 -306 -143 -435 -7 -33 -13 -62 -14 -65 0 -3 -4 -27 -9 -53 -4
-27 -9 -59 -12 -70 -18 -93 -24 -417 -11 -557 21 -214 96 -520 158 -642 5 -10
9 -23 9 -29 0 -19 124 -260 180 -349 201 -321 452 -569 799 -784 74 -47 271
-142 371 -179 145 -55 345 -109 450 -122 30 -4 57 -8 60 -10 28 -17 401 -25
555 -12 76 7 267 39 354 61 240 58 511 178 731 325 465 308 806 774 964 1316
64 219 90 409 90 655 1 181 -8 274 -38 440 -38 207 -107 413 -205 610 -281
565 -758 983 -1360 1192 -79 27 -258 76 -311 84 -14 2 -52 8 -85 14 -33 5 -85
12 -115 16 -57 6 -396 14 -402 9z m512 -1390 c0 -5 -11 -46 -24 -90 -30 -99
-86 -292 -120 -405 -28 -95 -94 -321 -133 -450 -13 -47 -42 -143 -63 -215 -21
-71 -52 -177 -70 -235 -17 -58 -33 -112 -35 -120 -14 -54 -59 -206 -61 -209
-5 -6 -225 -7 -234 -1 -4 3 16 88 47 190 93 316 213 720 249 845 20 66 71 242
115 390 43 149 83 279 88 290 8 19 18 20 125 20 74 1 116 -3 116 -10z m-930
-484 l0 -128 -237 -103 c-131 -57 -269 -118 -308 -136 -38 -17 -98 -44 -132
-58 -35 -14 -86 -37 -115 -50 -29 -13 -60 -26 -68 -29 -15 -4 45 -35 190 -97
36 -15 117 -50 180 -78 63 -28 198 -86 300 -131 l185 -80 3 -130 3 -130 -138
65 c-76 36 -156 74 -178 84 -22 10 -89 41 -148 69 -60 28 -111 51 -113 51 -2
0 -68 31 -146 68 -79 37 -207 97 -285 132 l-142 65 -1 108 c0 59 4 107 9 107
5 0 60 24 123 54 62 29 136 63 163 76 72 33 334 154 445 207 52 24 131 61 175
81 44 20 114 54 155 74 41 20 76 37 78 37 1 1 2 -57 2 -128z m1225 59 c39 -18
95 -44 125 -58 30 -13 84 -38 120 -55 36 -16 90 -41 120 -55 30 -13 147 -67
259 -118 111 -52 204 -94 206 -94 2 0 41 -18 87 -40 l83 -39 0 -110 1 -111
-46 -21 c-25 -12 -67 -32 -95 -44 -27 -13 -86 -39 -130 -60 -373 -172 -863
-395 -871 -395 -5 0 -9 53 -9 121 0 119 0 121 25 134 14 7 117 52 230 100 113
48 229 98 258 111 29 13 54 24 57 24 2 0 33 14 68 30 36 17 68 30 71 30 3 0
34 13 68 29 35 15 73 31 86 35 31 10 28 19 -15 37 -21 9 -162 69 -313 134
-151 64 -295 126 -320 136 -25 11 -83 37 -130 57 l-85 38 0 109 c-1 149 -2
147 43 125 20 -10 69 -32 107 -50z"/>
</g>
</svg>
